<svg width="52" height="49" viewBox="0 0 42 39" fill="none" xmlns="http://www.w3.org/2000/svg">
    <g clip-path="url(#clip0)">
    <circle cx="21" cy="19.5" r="17" fill="#3498DB"/>
    <path d="M30.4174 12.0061C30.4174 10.7047 29.9054 10.0541 28.8814 10.0541C27.5161 10.0541 26.0761 11.2061 24.5614 13.5101C23.0681 15.7927 21.7987 18.3741 20.7534 21.2541C19.7081 24.1127 18.8334 26.6834 18.1294 28.9661C17.4467 31.2487 17.1054 32.5287 17.1054 32.8061C17.1054 33.0834 16.9561 33.2221 16.6574 33.2221C16.0174 33.2221 15.6974 32.3687 15.6974 30.6621C15.6974 26.5447 16.1561 22.5447 17.0734 18.6621C18.0121 14.7794 19.0467 12.1874 20.1774 10.8861C17.1267 11.3127 14.6521 12.3901 12.7534 14.1181C11.6654 15.0781 11.1214 16.1234 11.1214 17.2541C11.1214 17.8087 11.3347 18.0861 11.7614 18.0861C11.6761 18.3847 11.4414 18.5341 11.0574 18.5341C10.6734 18.5341 10.3321 18.3847 10.0334 18.0861C9.75608 17.7874 9.61742 17.3714 9.61742 16.8381C9.61742 15.5794 10.3747 14.4167 11.8894 13.3501C13.4254 12.2621 15.0787 11.4621 16.8494 10.9501C18.6201 10.4167 20.1241 10.1501 21.3614 10.1501C21.7027 10.1501 21.8734 10.3207 21.8734 10.6621C20.5294 13.7767 19.2707 18.4914 18.0974 24.8061H18.3534C19.6121 20.8807 21.0734 17.4141 22.7374 14.4061C23.6334 12.7634 24.6254 11.4727 25.7134 10.5341C26.8014 9.57408 27.9107 9.09408 29.0414 9.09408C31.3454 9.09408 32.4974 10.3314 32.4974 12.8061C32.4974 14.2994 31.9747 15.9634 30.9294 17.7981C29.6067 20.1447 27.9427 21.8087 25.9374 22.7901C24.8707 23.3234 23.8041 23.5901 22.7374 23.5901C22.4814 23.5901 22.2787 23.5154 22.1294 23.3661C22.0014 23.2167 21.9161 23.0034 21.8734 22.7261C23.8787 22.7261 25.7774 21.5314 27.5694 19.1421C29.0414 17.2007 29.9481 15.2167 30.2894 13.1901C30.3747 12.7634 30.4174 12.3687 30.4174 12.0061Z" fill="white"/>
    <path d="M30.7377 12.0061C30.7377 10.7047 30.2257 10.0541 29.2017 10.0541C27.8364 10.0541 26.3964 11.2061 24.8817 13.5101C23.3884 15.7927 22.1191 18.3741 21.0737 21.2541C20.0284 24.1127 19.1537 26.6834 18.4497 28.9661C17.7671 31.2487 17.4257 32.5287 17.4257 32.8061C17.4257 33.0834 17.2764 33.2221 16.9777 33.2221C16.3377 33.2221 16.0177 32.3687 16.0177 30.6621C16.0177 26.5447 16.4764 22.5447 17.3937 18.6621C18.3324 14.7794 19.3671 12.1874 20.4977 10.8861C17.4471 11.3127 14.9724 12.3901 13.0737 14.1181C11.9857 15.0781 11.4417 16.1234 11.4417 17.2541C11.4417 17.8087 11.6551 18.0861 12.0817 18.0861C11.9964 18.3847 11.7617 18.5341 11.3777 18.5341C10.9937 18.5341 10.6524 18.3847 10.3537 18.0861C10.0764 17.7874 9.93773 17.3714 9.93773 16.8381C9.93773 15.5794 10.6951 14.4167 12.2097 13.3501C13.7457 12.2621 15.3991 11.4621 17.1697 10.9501C18.9404 10.4167 20.4444 10.1501 21.6817 10.1501C22.0231 10.1501 22.1937 10.3207 22.1937 10.6621C20.8497 13.7767 19.5911 18.4914 18.4177 24.8061H18.6737C19.9324 20.8807 21.3937 17.4141 23.0577 14.4061C23.9537 12.7634 24.9457 11.4727 26.0337 10.5341C27.1217 9.57408 28.2311 9.09408 29.3617 9.09408C31.6657 9.09408 32.8177 10.3314 32.8177 12.8061C32.8177 14.2994 32.2951 15.9634 31.2497 17.7981C29.9271 20.1447 28.2631 21.8087 26.2577 22.7901C25.1911 23.3234 24.1244 23.5901 23.0577 23.5901C22.8017 23.5901 22.5991 23.5154 22.4497 23.3661C22.3217 23.2167 22.2364 23.0034 22.1937 22.7261C24.1991 22.7261 26.0977 21.5314 27.8897 19.1421C29.3617 17.2007 30.2684 15.2167 30.6097 13.1901C30.6951 12.7634 30.7377 12.3687 30.7377 12.0061Z" fill="white"/>
    </g>
    <defs>
        <clipPath id="clip0">
            <rect width="52" height="49" fill="white"/>
        </clipPath>
    </defs>
</svg>
